<svg width="375" height="667" viewBox="0 0 375 667" fill="none" xmlns="http://www.w3.org/2000/svg">
<g clip-path="url(#clip0)">
<rect width="375" height="667" fill="white"/>
<rect x="-11" width="413" height="667" fill="#3C3F5B"/>
<path d="M173.753 137.218C207.527 122.614 245.112 120.437 280.954 128.759L295.181 132.062C393.548 154.901 456.157 251.541 436.797 350.652L404.605 515.448C387.409 603.477 310.277 667 220.583 667H117.442C45.6109 667 -19.9068 625.963 -51.2574 561.334L-71.1959 520.231C-102.311 456.088 -94.5401 379.729 -49.5082 324.461C-7.53383 272.945 41.5179 215.095 65 196C90.2576 175.461 137.086 153.073 173.753 137.218Z" fill="#50506C"/>
<path d="M25.46 -305.788C25.46 -305.788 187.855 -46.668 47.548 45.3547C-92.7587 137.377 243.83 468.432 555.569 747.939C1246.33 1367.28 -173.987 -75.862 -173.987 -75.862L470.543 1234.79L-545.998 353L25.46 -305.788Z" fill="#3A3854"/>
</g>
<defs>
<clipPath id="clip0">
<rect width="375" height="667" fill="white"/>
</clipPath>
</defs>
</svg>
